<svg id="visual" viewBox="0 0 900 600" width="900" height="600" xmlns="http://www.w3.org/2000/svg" xmlns:xlink="http://www.w3.org/1999/xlink" version="1.1"><g transform="translate(924.2288002858535 -8.165250300248545)"><path d="M205.3 -353.5C264.6 -321.4 310.3 -263.4 321.8 -200.2C333.3 -137 310.6 -68.5 306.7 -2.3C302.9 64 317.7 128 303.3 186.2C288.9 244.3 245.2 296.7 189.8 339.7C134.3 382.7 67.2 416.3 14.8 390.6C-37.5 365 -75 279.9 -129.7 236.5C-184.4 193.1 -256.3 191.3 -306.6 158.8C-356.8 126.3 -385.4 63.2 -368.7 9.7C-351.9 -43.8 -289.8 -87.7 -245.8 -130.8C-201.7 -174 -175.6 -216.5 -137.6 -260.9C-99.7 -305.3 -49.8 -351.6 11.6 -371.7C73 -391.8 146 -385.5 205.3 -353.5" fill="#BB004B"></path></g></svg>